<svg xmlns="http://www.w3.org/2000/svg" width="1606.667" height="484" viewBox="0 0 1205 363" preserveAspectRatio="xMidYMid meet" xmlns:v="https://vecta.io/nano"><style><![CDATA[.B{fill:#003e95}.C{stroke:#003e95}.D{fill:#019fe7}.E{stroke:#019fe7}]]></style><g stroke-width=".1"><path d="M96 17.3C53.6 38.5 20.6 74.6 4 117.7c-2.6 6.7-2.7 7.5-1.2 8.1l9.7 3.3 8 2.7 1.4-3.1c5.9-13.7 16.2-32.8 21.8-40.6C54.6 73 70.8 57.4 87.4 46c4.6-3.1 25.3-14.1 28.5-15.2 1.2-.3.8-2-1.8-8.5-5.1-12.7-3.7-12.3-18.1-5z" class="B C"/><path d="M248.4 12.2c-1.8 2.4-6.6 15.7-6.2 17.4.3 1.8.2 1.8 9.8 6.3 3.6 1.7 7.4 3.6 8.5 4.3l8.5 5.3c27.2 16.7 49.9 43.4 63 73.9 2.5 5.9 5.4 11.2 6.3 11.8 1.2.6 4 .1 9.5-1.7 9.4-3.3 10.3-4 9.6-7.4-1.1-5-15.2-32.6-20.9-41.1-18.7-27.6-44-49.7-74.3-65-9.4-4.7-12.5-5.6-13.8-3.8z" class="D E"/><path d="M112.4 54.4c-23.9 12.5-41.3 28.1-56.2 50.3-6.6 9.8-17.4 32.6-16 33.7.7.6 19 6.7 19.2 6.4.2-.2 1.3-3 2.6-6.3 5.9-14.7 14.5-27.9 25.9-39.8 10.8-11.3 20.7-18.6 34.2-25.7l10.7-5.6-2.9-6.9-3.9-9.3c-.5-1.2-1.5-2.2-2.2-2.2s-5.8 2.4-11.4 5.4z" class="B C"/><path d="M232.1 51.2l-3.6 9c-1.5 3.6-2.4 7.1-2 7.7.3.6 3.9 2.7 7.8 4.6 28.6 13.5 50.4 37.4 63.5 69.7.7 1.6 1.9 2.8 2.9 2.8 3.5 0 17.5-5.2 18-6.7.8-2-.8-6.6-5.9-17.3-9.1-19-23.2-36.7-40.3-50.4-10.6-8.5-16.2-12.1-27.2-17.6-9.3-4.6-12-4.9-13.2-1.8z" class="D E"/><path d="M412 61.8c0 .8 10.1 29.1 27.5 77.2l10.1 28c2 5.8 4.2 11.1 4.7 11.7 1 1.4 21.4 1.9 23.3.5 1.1-.7 2.8-5.2 15.4-40.7l10.3-28.5 2.5-6.5 1.2 3c1.4 3.6 7.5 20.5 16.4 45.5l8.5 23 1.7 4.5 10 .3c5.4.2 10.8.1 11.9-.2 1.3-.3 2.6-2.3 3.9-5.8l5.1-14.3L599 62.4c0-1.2-2.3-1.4-14.1-1.2l-14.1.3-12.6 34.8c-6.9 19.1-12.9 34.4-13.4 33.9-.4-.4-3.5-8.6-6.9-18.2l-14.8-42-3-8.5h-14.6-14.7l-7.7 22-12.1 34.7c-2.3 7.1-4.6 12.8-4.9 12.8s-2.8-6.2-5.4-13.8l-18-50.5-2.2-5.7h-14.2c-7.9 0-14.3.4-14.3.8zm220.7.6c-6.3 1.7-12.3 6-16.9 12.1-7.3 9.7-7.2 8.7-7.6 59.8l-.3 45.8 13.8-.3 13.8-.3.3-43.4c.2-38.7.4-43.7 1.9-45.3 1.5-1.7 4.3-1.8 43.4-1.8h41.8l1.5 2.2c1.2 1.7 1.6 4.9 1.6 13V115h-36.5H653v13.5V142h36.5H726l.2 18.7.3 18.8H740h13.5l.3-41c.3-42.9-.2-50.1-3.9-58.1-3.1-6.6-9-12.6-15.5-15.9l-5.9-3-45.5-.2c-35.1-.2-46.6.1-50.3 1.1zm142.5 57.8l.3 59.3 13.3.3 13.2.3.1-34.8.2-39.6c0-2.6.3-4.7.7-4.7s15.1 16.1 32.6 35.7l35.5 39.5 3.6 3.9 13.4-.3 13.4-.3v-59-59l-13.7-.3-13.8-.3-.2 39.7-.3 39.6-29-32.3L809 68.3l-6.5-7.2-13.8-.1H775l.2 59.2zm144.8.3V180h45.3c24.8 0 48.4-.5 52.2-1 13.1-1.9 23.6-9.4 29.3-20.9l2.7-5.6v-32-32l-2.6-5.5c-5-10.7-15.6-18.7-27.9-21-3.1-.6-24.8-1-52.1-1H920v59.5zm99.7-29.1l2.8 2.4v26.7 26.7l-2.8 2.4-2.8 2.4h-34.5c-22.2 0-34.4-.4-34.5-1 0-.6-.1-2.4-.1-4l.1-30.5.1-27.5h34.4 34.5l2.8 2.4zm67-29c-9.5 2.6-18.8 11.8-22.4 22.1-2.3 6.6-2.3 21.2.1 27.4 3.3 8.8 11.5 17 20.4 20.4 3.7 1.5 9.5 1.7 45.7 1.7 40.2 0 41.6.1 43.5 2 2.5 2.5 2.7 10.5.4 13.8l-1.5 2.2h-52.5-52.4v14 14.1l54.8-.3c49.9-.3 55.1-.5 59.4-2.2 7-2.6 14.1-9.8 18-18.1 2.9-6.3 3.2-7.9 3.2-16 0-13.7-5.2-24.6-14.7-31.1-7.9-5.3-8.7-5.4-53.7-5.4-39.6 0-41.8-.1-43.4-1.9-2.1-2.3-2.5-10.6-.7-13.9l1.2-2.2h52.9 53V75 61l-53.2.1c-40.4 0-54.5.4-58.1 1.3zM131.9 89.9c-18.4 9-34.3 24-44.8 41.9-3.5 6-9.5 19.3-8.8 19.7 1.2.8 18.9 6.6 19.2 6.3.2-.2 1.7-3.4 3.4-7.1 5.7-12.7 15.3-24.9 26.1-33.2 4.7-3.6 16.6-10.5 20-11.7 1-.3-5-17.2-6.7-18.9-.4-.4-4.2.9-8.4 3z" class="B C"/><path d="M218.2 87.2c-1.6 2-6.2 12.5-6.8 15.7-.6 2.7-.2 3.1 6.5 6.6 17.9 9.4 29 20.6 37.9 38.3 1.8 3.5 3.2 7 3.2 7.7 0 2.4 2.9 3.9 5.3 2.7 1.2-.6 5.3-2.1 9.1-3.4 3.7-1.2 7.1-2.8 7.3-3.6.3-.7-.9-4.6-2.7-8.8-9.8-22.3-28.9-42.2-51.7-53.8-5.9-3-6.7-3.1-8.1-1.4z" class="D E"/><path d="M147.9 127.2c-11.8 6.1-27.8 24.4-30.4 34.9-.6 2.6-.3 2.8 8 5.8 4.7 1.7 9.1 3.1 9.8 3.1s2.4-2.7 4-6c3.3-7.1 10.8-14.9 18.3-19.2 6.2-3.4 6.1-2.6 1.1-14.6-1.6-3.9-3.3-7.2-3.7-7.2s-3.6 1.5-7.1 3.2z" class="B C"/><path d="M202.2 125.2c-1.4 1.8-6.2 14.7-6.2 16.8 0 1.2 1.7 2.7 4.8 4.2 6.3 3.1 14.6 11.6 18.2 18.8 1.6 3.2 3.3 6.1 3.7 6.3 1.1.7 16.6-4.5 18.6-6.1 1.5-1.2 1.4-1.8-.7-6.5-5.7-13-14.8-23-27.8-31-6.5-3.9-8.9-4.5-10.6-2.5zm-75.8 76.2c-6.9 2.4-9.4 4.1-9.4 6.5 0 .9 1.4 4.5 3.2 8.1 6.9 13.6 30.4 33.2 35.4 29.6.9-.7 3.2-4.8 5-9.2 3.6-8.7 3.5-9.3-2.4-12.1-6-2.9-14.6-11.7-18.2-18.7-3.8-7.5-4-7.6-13.6-4.2z" class="D E"/><path d="M220.1 204.5c-3 7-9 13.9-16.4 18.6-3.2 2.1-6.3 3.9-6.9 4.1-.8.3.2 3.8 2.6 10.1 4.2 10.9 3.5 10.7 13.5 4.7 8.1-4.7 13.6-9.5 18.8-16.4 4.3-5.7 10.3-16.8 10.3-19.1 0-.6-3.9-2.4-8.7-3.9l-9.8-3.2c-.5-.2-2.1 2.1-3.4 5.1z" class="B C"/><path d="M426.1 208.4c-.7.8-1.1 3-.9 4.8l.3 3.3 385.9.3 387.8-1.5c2.2-2 2.3-4.6.1-6.4-2.5-2.1-771.5-2.6-773.2-.5zM88 214.6c-10.6 3.6-10.9 4-8 11.1 9.3 22.9 29.3 44.4 51.8 55.6 6.9 3.4 8.9 3.4 10.4-.1.6-1.5 2-4.7 3-7.1 3.5-8 3.2-9.1-4.2-13.1-10.5-5.7-15.1-9-21.6-15.4-7-7.1-10.5-12-16.3-23.1-4.4-8.3-5.9-10.5-7-10.5-.3 0-4 1.2-8.1 2.6z" class="D E"/><path d="M260.3 213.8c-6.7 20-23.2 38.3-43.5 48.4-4.6 2.3-5.8 3.3-5.3 4.6 3.2 8.6 7 17.2 7.7 17.2 1.6 0 15.3-7.3 20.8-11 8.6-5.9 18.8-15.8 25.2-24.4 5.6-7.4 14.3-23.8 15-28 .2-1.6-1.3-2.4-9.5-5.2-8.8-3-9.9-3.1-10.4-1.6z" class="B C"/><path d="M48.5 228.2l-8.8 3.7c-1.8 1.7 8 22.3 17.4 36.3 14.3 21.3 39.3 42.1 62.7 52.3 5.3 2.3 5.6 2 10.1-8.9 3.8-9.3 4.2-8.5-8.2-15-12.7-6.6-20.9-12.7-31.7-23.5-10.7-10.7-16.5-19-23.4-33.1l-5.9-12c-.7-1.4-1.9-2.6-2.7-2.7s-5.1 1.1-9.5 2.9z" class="D E"/><path d="M295.6 235c-11.2 26.6-34.1 50.4-60.8 63.6-4.3 2.1-7.8 4.4-7.8 5 0 .7 1.6 5 3.6 9.8l3.6 8.5 5.6-2.5c20.2-8.9 40.8-25 55.4-43.3 10.6-13.1 25.6-41.9 23.1-44.1-.9-.9-16.3-6-17.8-6-.6 0-2.8 4-4.9 9z" class="B C"/><path d="M503.7 234.7c-1.1 1.1-.8 4.8.5 6.1 3.2 3.2 8.7-1.8 5.8-5.3-1.3-1.5-5.1-2-6.3-.8zm76.4.6c-.8 1-1.1 7.3-.9 21.8l.3 20.4h3 3V256c0-21 0-21.5-2.1-21.8-1.1-.2-2.6.3-3.3 1.1zm237.6-.6c-.4.3-.7 3.5-.7 7v6.4l-3-1.6c-4-2.1-8.3-1.9-13 .5-6.6 3.4-9.6 10.5-8 19.1 1.7 9.5 13.2 15.7 21.2 11.5 1.6-.9 3-1.1 3.3-.5.8 1.2 5.2 1.2 6-.1s.9-40.6 0-41.9c-.7-1.2-4.8-1.5-5.8-.4zm-2.4 19.4c1.2 1.5 1.7 3.9 1.7 8.1 0 4.9-.4 6.3-2.5 8.3-4.3 4.4-11.6 2.6-13.6-3.3-2.9-8.7 1.9-17 9-15.8 2 .3 4.4 1.5 5.4 2.7zm241.1-18.8c-.2.7-.3 10.5-.2 21.7l.3 20.5 2.6.3c3.6.4 4.7-1.4 5.1-8.3.2-3.3.8-6 1.5-6.2.6-.2 3.7 3 6.9 7.1 5 6.7 6 7.6 8.9 7.6 5.6 0 5.4-.5-5.3-14l-4.4-5.5 5.7-5.1c6-5.3 6.5-7.4 1.8-7.4-1.6 0-4.7 2-8.9 5.6l-6.4 5.6v-10.4c0-6.8-.4-10.8-1.2-11.6-1.6-1.6-5.7-1.5-6.4.1zm94.8-.1c-.7.7-1.2 3.7-1.2 7v5.9l-3-1.6c-13-6.7-26.6 10.3-19.2 24.2 3.5 6.5 13.2 10 19.3 6.9 2.3-1.2 3.6-1.3 4.5-.5.7.6 2.3.9 3.6.7l2.3-.3V256v-21.5l-2.5-.3c-1.4-.2-3.1.3-3.8 1zm-3.7 18.2c4.5 4.5 4.5 12.7 0 17.2-6.7 6.7-15.6-.8-13.8-11.8 1.1-7.2 8.9-10.3 13.8-5.4zm-217.3-15.2c-.6.7-1.4 2.6-1.8 4.3-.4 1.6-1.6 3.7-2.7 4.6-2 1.6-2 1.6 0 3 1.8 1.2 2.1 2.8 2.5 12.6.5 13.5 1.6 15.3 8.5 15.3 3 0 4.5-.5 4.9-1.5.8-2-1.3-4.5-3.7-4.5-2.2 0-3.2-5.4-2.7-14.5.3-5.3.6-6 2.5-6.3 1.2-.2 2.7-1 3.3-1.8 1-1.1.6-1.7-2.3-2.9-3.1-1.3-3.6-2-3.9-5.2-.3-4-2.6-5.5-4.6-3.1zM11.6 241c-4.9 1.6-9.3 3.3-9.9 3.9-2.1 2.1 9.2 26.8 19.2 42.1 11.7 17.8 24 31.3 41.6 45.6 5.6 4.5 18.2 13.4 19 13.4.3 0 3.1 1.6 6.1 3.5s5.7 3.5 6.1 3.5 3.5 1.4 7.1 3.2c4.8 2.4 6.7 3 8 2.2 2.3-1.4 7.4-12.1 7.6-15.8.1-2.7-.5-3.3-4.9-5.5-26.6-13-44.5-26.9-61.5-47.6-10.1-12.4-20.7-30.6-25.5-44-2.8-7.8-2.8-7.8-12.9-4.5z" class="D E"/><path d="M336.1 243.2c-2.3 7.6-13 28.1-19.4 37.1-17.2 23.9-40.3 43.5-65.4 55.4-5.1 2.5-9.3 4.7-9.3 5.1.1 1.7 7 17.7 7.8 18 1.5.5 17.3-7.2 27.3-13.3 28.3-17.3 50.2-40 67.1-70 5.6-9.9 13-27.1 12.6-29.2-.3-1.5-15.1-7.3-18.3-7.3-.7 0-1.8 1.9-2.4 4.2z" class="B C"/><path d="M527.7 247c-2.1 1.7-2.6 1.8-3.1.5-.7-1.8-3.7-2-5.4-.3-1.5 1.5-1.7 26.1-.2 28.9 1.2 2.1 4 2.5 5.8.7.8-.8 1.2-4.7 1.2-11 0-8.6.3-10.1 2.1-11.9 1.6-1.6 2.9-2 5-1.5 2.3.4 3.1.1 4-1.6 1-1.8.8-2.4-1.1-4-2.9-2.3-5.1-2.3-8.3.2zm20.3.3c-10.7 5.7-12 21.8-2.3 28.3 5.8 3.9 16.9 4 21.4.2 4-3.4 5.2-5.7 3.9-7.3-1.9-2.3-4.3-1.8-7.5 1.5-2.3 2.4-3.7 3-7 3-4.8 0-9.5-3.5-9.5-7 0-1.9.6-2 11.9-2 9.2 0 12.1-.3 13.1-1.5 2.9-3.5-2.9-13.2-9.8-16-4.9-2.1-9.2-1.9-14.2.8zm14.4 5.8c1.4 1.1 2.6 2.9 2.6 4 0 1.7-.8 1.9-9 1.9-8.4 0-9-.1-9-2 0-2.6 5.5-6 9.6-6 1.7 0 4.3.9 5.8 2.1zm38.5-5.8c-9.8 5.1-11.9 20.3-3.8 27.1 7.1 6 17.6 5.8 24.2-.4 3.6-3.3 3.9-4 2.8-5.4-2-2.3-4.8-2-6.7.9-3.9 6-17.4 3.3-17.4-3.5 0-1.8.8-2 12.3-2.2l12.2-.3.3-4.2c.3-3.5-.2-4.7-3-7.9-5.9-6.7-13.2-8.1-20.9-4.1zm14.6 6.2c1.4 1.3 2.5 2.9 2.5 3.5s-3.4 1-9 1-9-.4-9-1 1.1-2.2 2.5-3.5c1.8-1.9 3.5-2.5 6.5-2.5s4.7.6 6.5 2.5zm22-7.1c-4.3 1.9-6.8 5.1-6.8 8.8 0 4.4 4 7.2 13.2 9.5 6.5 1.6 7.6 2.2 7.9 4.2.5 3-1.2 4.1-6.6 4.1-3.6 0-4.9-.5-7.3-3.1-1.9-2-3.6-2.9-5.1-2.7-3.7.5-3.4 4 .6 7.6 6.4 5.6 17.5 5.5 23.3-.3 4-4 4.4-8.2 1-11.3-2.4-2.2-4.1-2.9-13.9-5.7-4.4-1.2-5.8-2-5.8-3.4 0-4 8.4-4.3 12.9-.5 2.5 2.1 3.4 2.3 5.1 1.4 5.9-3.2-2.7-10.1-12.5-10-1.6.1-4.3.7-6 1.4zm35-.2c-7.7 2.7-9.9 9.2-4.7 14.1 1.9 1.8 5 3.2 9.9 4.3 8.7 1.9 10.8 3.8 7.4 6.5-3.7 3-9.7 2.5-13.1-1.1-3-3.2-4.9-3.7-6.8-1.8-1.7 1.7-1.5 2.2 1.3 5.7 3.4 4 11.1 5.8 17.4 4.1 5.2-1.4 10.1-5.9 10.1-9.3 0-3.7-3.6-7.5-8.3-8.8-11.5-3.1-13.7-4.1-13.7-5.9 0-3.9 8.4-4.2 12.9-.4 2.5 2.1 3.4 2.3 5.1 1.4 2.6-1.4 2.5-3.2-.2-5.6-4.8-4.3-11-5.4-17.3-3.2zm54.2.2c-7.3 2.7-9.9 7.3-5.5 9.7 1.9 1 2.5.8 4.4-1.6 3.8-4.8 15.4-4.5 15.4.5 0 2.5-.6 2.8-9.1 4-4 .6-8.7 1.8-10.3 2.8-5.8 3.4-6 10.4-.3 14.6 3.6 2.6 12.7 2.8 17.3.3 2.9-1.5 3.3-1.5 4.5-.1.7.8 2.4 1.4 3.8 1.2l2.6-.3-.4-12c-.3-12.6-1.4-16.5-5.1-18.5-3.4-1.8-13.1-2.1-17.3-.6zm14.3 19.3c0 3.4-.8 4.6-3.7 6.2-2.3 1.2-8.1 1.5-10.7.5-.9-.4-1.6-1.8-1.6-3.4 0-2.7.4-2.9 5.8-4 3.1-.6 6.2-1.3 6.7-1.5 2.6-.9 3.5-.3 3.5 2.2zm26.3-18.8c-3.6 1.7-4.2 1.7-4.7.4-.4-.8-1.5-1.3-2.8-1.1-2.3.3-2.3.5-2.3 15.8v15.5h3 3l.5-11.3c.4-9.9.8-11.6 2.5-12.8 3.2-2.4 6.7-2.8 9.4-1.3 2.5 1.4 2.6 1.9 3.1 12.8.4 9.4.8 11.6 2.3 12.5 1.2.8 2.2.8 3.5 0 1.4-.9 1.7-2.9 2-12.4.3-12.5-.4-14.6-6.1-18-4-2.5-8-2.5-13.4-.1zm94.5 0c-3 1.5-3.8 1.6-4.2.5-.9-2.4-4.6-1.6-5.7 1.3-1.2 3.2-.4 27.2.9 28.5.5.5 2 .8 3.3.6 2.3-.3 2.4-.7 2.9-11.4.3-7.2 1-11.7 1.9-12.7 2-2.5 7.7-3.2 10.6-1.3 2.3 1.5 2.4 2.1 2.7 13.4l.3 11.7h3 3l.3-12.9c.3-14.3-.2-15.5-6.5-18.2-4.3-1.9-8-1.7-12.5.5zm35.7-.5c-10.6 4.9-13.4 19-5.4 27.2 4 4.2 9.4 5.8 16.3 4.9 4.2-.6 5.8-1.4 8.9-4.7 4.3-4.5 4.3-6.1.1-6.6-2.1-.3-3.4.3-5 2.3s-3.3 2.8-6.7 3.2c-4.1.5-4.9.2-7.7-2.5-5.5-5.5-4.6-6.1 9.8-6.4l12.7-.3.3-3.2c.7-7.3-6.3-14.2-15-14.8-3.3-.3-6.5.1-8.3.9zm13 7.1c1.4 1.3 2.5 2.9 2.5 3.5s-3.4 1-9 1h-9l1.1-2.4c2.3-5 10.4-6.2 14.4-2.1zm93.8-7.4c-5.4 1.6-10 6.8-10.8 12.2-2 13.1 6.8 21.8 20 20.1 4.1-.5 5.8-1.4 9.2-4.8 5.3-5.4 6.5-11.2 3.5-17.7-4-9-12.1-12.6-21.9-9.8zm10.8 5.9c5.6 3.1 6.4 14.4 1.3 18.8-2.3 2-3.5 2.3-7.3 1.9-6.2-.7-8.1-3.2-8.1-10.6 0-3.2.6-6.4 1.3-7.3 2.8-3.6 8.8-4.9 12.8-2.8zm27.8-5.1c-2.2 1.8-2.5 1.8-4.2.3-1.4-1.2-2.2-1.4-3.5-.5-1.5.9-1.7 3-1.7 15.9v14.9h3c3.7 0 4.3-1.9 4.4-13.7.1-8.2.3-8.9 2.6-10.4 1.5-1 3.4-1.4 5-1 1.8.5 2.7.1 3.6-1.5 2.2-4.3-5-7.5-9.2-4zm54.5 0c-6.3 2.9-8.9 7.2-8.9 15.1 0 4.7.5 7.4 1.8 9.3 3.9 6 12.6 8.8 20.2 6.7 5-1.4 11.1-7 10.2-9.4-1-2.6-5.1-1.8-8.2 1.4-2.3 2.4-3.7 3-7.2 3-4.9 0-9.3-3.3-9.3-7 0-1.9.6-2 12-2 11 0 12-.2 13-2 1.6-2.9-.2-7.9-4.3-11.8-5.7-5.5-12-6.6-19.3-3.3zm14.1 6.6c1.4 1.3 2.5 2.9 2.5 3.5s-3.4 1-9 1-9-.4-9-1 1.1-2.2 2.5-3.5c1.8-1.9 3.5-2.5 6.5-2.5s4.7.6 6.5 2.5zm-660.9-6.6c-.4.5 1.8 7.6 4.6 15.8 5.2 14.5 5.4 14.8 8.4 15.1 1.7.2 3.5-.3 4.1-1s2.3-5.5 3.9-10.7l2.8-9.3 2.9 9.3c1.6 5.2 3.4 10 4 10.7.5.7 2.4 1.2 4.1 1 2.9-.3 3.1-.7 8.3-15.1 2.9-8.2 5.1-15.3 4.7-15.8-.3-.5-1.6-.9-3-.9-2.7 0-4.7 3.5-7.8 14.2-.9 3.2-2.1 5.8-2.6 5.8s-1.6-2.6-2.5-5.8c-3.8-13.3-3.9-13.7-7.2-14-1.6-.2-3.4.3-4 1s-2.3 5.5-3.8 10.6c-1.6 5.1-3.2 8.9-3.5 8.5-.4-.4-2-4.6-3.5-9.3s-3.2-9.1-3.8-9.8c-1.1-1.4-5.3-1.6-6.1-.3zm52.8.4c-.2.7-.3 7.8-.2 15.7l.3 14.5 2.7.3c1.8.2 3-.3 3.6-1.5 1.1-2 .9-27.4-.2-29.2-1-1.5-5.5-1.4-6.2.2zm439.9.3c-.5 1.4 2.9 12.6 7.6 24.9 1.5 4.1 2.4 5.1 4.6 5.3 1.4.2 3.2-.1 3.9-.7s2.6-5.4 4.1-10.6c3.2-10.8 3.3-10.8 6.9 2.5 2.2 7.9 3 9 6.8 9 3.3 0 3.2.2 9.8-18.4 4.3-12.3 4.3-14.1-.1-13.4-2.1.3-2.9 1.8-6.1 10.8-2.7 7.6-3.9 9.9-4.3 8.5-5.7-18.3-6-19-8.6-19.3-4.2-.5-5.2 1.4-10.7 19.3-.9 2.8-1.1 2.5-3.7-6-1.5-5-3.3-10-4.1-11.3-1.7-2.5-5.2-2.9-6.1-.6zm-490.6 40c-.4.4-.7 3.6-.7 7.1 0 3.4-.2 6.3-.4 6.3s-1.7-.7-3.2-1.5c-7.8-4-17.4.6-20.4 9.8-2 6.5-.5 12.4 4.5 17.4 4 4.1 4.5 4.3 10.2 4.3 4.2 0 6.4-.5 7.3-1.5 1.1-1.4 1.4-1.3 2.4.1.7.9 2.2 1.4 3.7 1.2l2.4-.3V309v-21.5l-2.5-.3c-1.4-.2-2.9 0-3.3.4zm-3.2 18.9c2.1 2 2.5 3.4 2.5 8.3 0 7.5-1.9 10.1-7.7 10.9-3.5.5-4.5.2-6.7-2s-2.6-3.5-2.6-8.7c0-7.5 2.7-11 8.5-11 2.5 0 4.4.8 6 2.5zm17.9-18.1c-.9 2.3-.1 4.8 1.8 6 1.4.8 2.2.6 3.9-1 1.7-1.8 1.9-2.5 1-4.3-1.3-2.4-5.9-2.9-6.7-.7zm91.3-.8c-1.1 1.2-.8 5.1.6 6.2.7.6 2.1.6 3.5.1 3.4-1.3 2.8-6.3-.8-6.7-1.4-.2-2.9 0-3.3.4zm15.4.8c-.8.9-1.1 7.4-.9 21.1.3 17.3.5 19.9 2 20.8 1.3.9 2.1.7 3.5-.5 1.6-1.4 2-1.5 3.7-.2 1.1.8 4.3 1.4 7.3 1.4 4.7 0 5.8-.4 9.3-3.6 4.7-4.2 6.5-9.6 5.5-16.3-1.4-9.2-11.5-15.2-19.9-11.7-1.9.8-3.7 1.2-3.9.8-.3-.4-.5-3.1-.6-6.1-.1-2.9-.4-5.8-.7-6.2-.8-1.4-4-1.1-5.3.5zm21.4 18.2c3.6 4.9 2.4 15.1-2.1 18-2.8 1.9-8.9 1.4-11.2-1-1.7-1.6-2.7-9.4-1.8-13.1 1.2-4.7 4.3-6.8 9.3-6.2 2.7.3 4.9 1.2 5.8 2.3zm133.2-19c-.4.4-.7 3.6-.7 7.1v6.4l-3.2-1.7c-6.5-3.4-16.5.3-19.4 7.2-.8 1.8-1.4 5.4-1.4 7.9 0 10 5.8 16.5 14.9 16.5 3 0 6.2-.7 7.5-1.5 2.1-1.4 2.4-1.4 3 0 .3 1 1.5 1.5 2.8 1.3l2.3-.3V309v-21.5l-2.5-.3c-1.4-.2-2.9 0-3.3.4zm-3.2 18.8c4.7 4.7 4.1 14.9-1.1 18.2-3.3 2.2-8.7 1.1-11.4-2.3-3.4-4.4-2-15.9 2.2-17.6 3.4-1.4 8-.6 10.3 1.7zm181.2-18.8c-1.6 1.7-.6 5.5 1.8 6.6 3.2 1.4 5.7-.5 5.3-4.1-.2-2.1-.9-2.7-3.3-2.9-1.7-.2-3.4 0-3.8.4zM519 291c-1.1 1.1-2 3.3-2 5 0 1.9-.5 3-1.4 3-2.5 0-3 2.3-.9 4 1.9 1.5 2.2 3 2.5 12.9.3 10.4.5 11.4 2.7 13.2 2.9 2.4 9.9 2.6 10.7.4.8-2-1.3-4.5-3.7-4.5-1.7 0-1.9-.9-1.9-10.5s.2-10.5 1.9-10.5c2.6 0 4.4-2.3 2.9-3.8-.7-.7-2-1.2-3-1.2-1.4 0-1.8-.8-1.8-3.8 0-3.6-1.4-6.2-3.2-6.2-.4 0-1.7.9-2.8 2zm133.2-.4c-1.5 1-2.2 2.5-2.2 4.8 0 2.5-.5 3.5-2 3.9-1.1.3-2 1.3-2 2.2s.9 1.9 2 2.2c1.8.5 2 1.4 2 11.3 0 9.3.3 11.1 2.1 13.4 1.6 2 2.9 2.6 5.9 2.6 6.4 0 7.9-5.3 1.7-6.2-2.1-.3-2.2-.9-2.5-10.5l-.3-10.2 2.8-.3c3.9-.4 4-4.2.1-4.6-2.4-.3-2.7-.8-3-4.9-.3-5.2-1.3-6-4.6-3.7zm-164.8 8.8c-5.9 2.6-7.9 8-4.8 12.4 1.8 2.7 4.3 3.8 13.4 6.1 5.3 1.4 6.6 2.1 6.8 3.9.3 1.6-.4 2.5-2.3 3.2-4.7 1.8-8.2 1.2-11.8-2-3.8-3.3-6.4-3.8-7.4-1.4-1.6 4.2 4 9 11.2 9.4 8.4.6 10.5.1 14.2-3.3 7.4-6.8 3.9-13.1-8.8-16.2-8.5-2.1-10.9-3.6-9-5.9 2-2.4 9.7-2.1 11.8.4 2.1 2.4 5.6 2.6 7.4.4 1.2-1.4.9-2-2-4.4-4.9-4.1-12.7-5.2-18.7-2.6zm56.7.5c-1.6 1.6-2 1.7-2.5.5-.4-1-1.6-1.4-3.3-1.2l-2.8.3V315c0 15.4 0 15.5 2.3 15.8 4.4.6 5.2-1.2 5.2-12.2 0-5.5.4-10.7.9-11.5s2.8-1.7 5.2-2c5.2-.7 7.4-3.5 4.5-5.7-2.8-2-7.2-1.8-9.5.5zm131.9-.8c-6.3 2.5-10 8.5-10 16.1 0 11.2 8.7 17.9 21 16.1 3.4-.4 5.4-1.5 8.3-4.4 4.4-4.4 4.4-6.3-.1-6.7-2.3-.2-3.3.2-4.2 1.8-2.7 5-12.9 5-15.5 0-.8-1.6-1.5-3.4-1.5-4s4.3-1 11.9-1c13.3 0 14.5-.5 13.5-6.1-1.9-9.7-13.7-15.7-23.4-11.8zm12.7 6.4c1.1.8 2.3 2.4 2.6 3.5.5 1.9.1 2-8.4 2-9.6 0-10.4-.6-6.4-4.5 2.8-2.9 8.8-3.4 12.2-1zm78.7-6.1c-3.7 1.6-6.4 5.1-6.4 8.3 0 4.3 4 7.4 13 9.8 6.4 1.6 8.6 2.6 8.9 4 .5 2.6-2.6 4.5-7.2 4.5-3 0-4.5-.7-6.7-3-2.8-3-7.2-4-8.5-2-1 1.7 3.3 7.7 6.5 9 4.2 1.7 15.4 1.5 18.1-.4s5.9-6.6 5.9-8.7c0-.9-.9-2.8-2.1-4.2-1.9-2.5-3.4-3.1-18.2-7.4-1.2-.3-1.7-1.2-1.5-2.6.4-3.2 8-3.7 11.9-.8 5.2 3.8 9.5 2.1 6.4-2.5-3.2-5-13.3-6.9-20.1-4zm36.7.4c-1.9.9-4.8 3.4-6.4 5.4-2.6 3.2-3 4.6-3 9.7 0 5 .4 6.6 2.7 9.5 3.8 5 7.4 6.6 14.9 6.6 5 0 7.1-.5 9.7-2.3 4.1-2.7 5.5-4.9 4.7-7.1-1-2.6-5-1.9-7.9 1.4-4.6 5.3-13.3 3.7-15.6-3l-1.1-2.9 12.7-.3 12.7-.3.3-3.5c.8-10.7-13.3-18.6-23.7-13.2zm12.4 4.8c.8.4 2.2 1.9 3.1 3.5l1.5 2.9H812c-9.8 0-11.1-.9-6.8-5 2.2-2 7.8-2.7 11.3-1.4zm28.3-4.7c-3 1.5-3.8 1.6-4.2.5-.6-1.6-4.2-1.9-5.1-.5-1 1.7-1.4 27.4-.4 29.3 1.1 2.1 3.9 2.4 5.7.6.8-.8 1.2-4.8 1.2-11.3 0-9.5.2-10.3 2.5-12.5 2-1.9 3.2-2.2 6.5-1.7 2.3.3 4.5.8 4.8 1.2.4.4.9 5.9 1.2 12.2.5 12.1 1.5 14.5 5.4 13 1.4-.5 1.6-2.5 1.6-12.9 0-13.8-.8-16-6.6-18.4-4.5-1.9-8.3-1.8-12.6.5zm33.2-.8c-6.9 2.9-9.2 9.5-4.7 13.7 2.4 2.2 4.1 2.9 14 5.7 4.4 1.2 5.7 2 5.7 3.5 0 5.5-11.9 5.3-15.8-.2-1.8-2.5-5.6-2-6 .8-.2 1.4.9 3.2 3.3 5.3 3.2 2.8 4.2 3.1 10.1 3.1 10 0 15.3-3.4 15.4-9.8 0-4.9-3.7-7.8-12.5-9.7-8.4-1.9-10.8-3.7-8.2-6.2 2.3-2.3 8.3-2 11.8.6 4.5 3.4 7.8 2.4 6.4-1.9-1.3-4.2-13.8-7.4-19.5-4.9zm54.5.4c-2.5.9-4.3 1.1-4.9.5-1.6-1.6-4.4-1.2-5.5.7-.5 1-1 7.7-1 14.9-.2 14.1.4 15.9 5.1 15.2 2.2-.3 2.3-.7 2.8-11.3.6-13.8 1.3-15 8-15 3.4 0 5.4.5 6 1.5.5.8 1 6.2 1 12 0 10.9.7 13 4.1 13 2.9 0 3.3-1.8 3.2-14.4-.2-11.7-.2-12-3-14.7-3.5-3.6-10-4.6-15.8-2.4zm33 .4c-6.2 3.8-9 9.6-8.2 16.7.6 5.3 2.9 8.8 7.8 12.2 2.9 2 4.2 2.3 8.7 1.9 2.9-.3 6-1.1 6.8-1.8 1.1-.9 1.4-.7 1.4 1.3 0 1.3-.7 3.4-1.6 4.6-1.2 1.8-2.5 2.2-7.1 2.2-4.7 0-5.9-.4-8-2.6-2.8-3.1-5.7-2.8-6.1.6-.2 1.7.6 3.4 2.3 5 2.3 2.1 3.8 2.5 10.3 2.8 6.8.3 8.1.1 11.2-2 5.8-3.9 6.5-6.3 6.5-24.2 0-14-.2-16-1.7-17-1.3-.8-2.3-.8-3.8.2-1.7 1-2.6 1-5-.3-3.9-2-9.9-1.9-13.5.4zm14.9 7.4c2.7 3.6 2.6 10.9-.2 14.6-2.8 3.8-9.2 4.1-12.7.7-2.1-2.1-2.5-3.5-2.5-8.1s.4-6 2.5-8.1c3.6-3.6 9.9-3.1 12.9.9zm41.6-7.1c-5.2 3.5-7.3 7.1-7.8 13.1-.5 6.1.9 9.6 5.7 14.1 3.8 3.7 11.1 4.7 15.9 2.2 3.1-1.6 3.2-1.6 3.2.7 0 1.2-.7 3.3-1.6 4.5-1.3 1.8-2.5 2.2-7.2 2.2s-6-.4-8.3-2.6-3-2.4-4.8-1.5c-2.8 1.5-2.7 2.4.8 6.3 2.8 3.1 3.3 3.3 10.8 3.6 6.4.2 8.4 0 11-1.7 5.7-3.6 6.5-6.6 6.5-24.2 0-8.7-.3-16.3-.7-16.8-.8-1.4-5.2-1.4-6-.1-.4.6-1.7.4-3.5-.5-4.3-2.2-10.1-1.9-14 .7zm14.5 6.3c2.1 2 2.5 3.4 2.5 8s-.4 6-2.5 8c-2.4 2.5-5.7 3.1-10.2 1.9-5.1-1.4-6.5-13.3-2-18.2 2.9-3.1 9-3 12.2.3zm27.1-7c-1.4 1.1-2.3 1.2-3.2.4-.7-.6-2.3-.9-3.6-.7-2.3.3-2.3.5-2.6 14.7-.3 15.2.3 17.5 4.2 16.9 1.9-.3 2.1-1.1 2.7-10.8.6-13 1.5-14.8 7.1-15.2 3.3-.2 4.4-.7 4.7-2.2.7-3.9-5.5-6-9.3-3.1zm19.4.7c-5.7 2.9-8.1 7-8.1 14.2-.1 9 4.6 15.1 13 16.6 12.9 2.3 22.5-6.5 20.8-19-1.5-11.3-14.7-17.3-25.7-11.8zm14.9 5.5c5 4.1 4.3 16.1-1 18.8-4.1 2.2-8.4 1.8-11.5-.8-2.2-1.9-2.8-3.4-3.2-7.8-.4-4.9-.1-5.9 2.3-8.7 2.2-2.7 3.4-3.2 7-3.2 2.6 0 5.1.7 6.4 1.7zm64.4-5.8c-2.6 1.6-3.2 1.7-3.7.5-.9-2.2-4.6-1.7-5.4.8-1 2.8-.8 39.1.2 40.7.9 1.5 3.9 1.4 5.4-.1.7-.7 1.2-3.8 1.2-7 0-5.5.1-5.8 1.9-4.8 1.1.5 4.2 1 6.9 1 9.3 0 15.2-6.6 15.2-17.1 0-4.2-.6-6.4-2.2-8.9-4.5-6.6-13.3-8.8-19.5-5.1zm11.7 6.1c2.6 2.6 3.4 6.1 2.6 11.4-1 6.6-6.1 9.9-11.9 7.7s-7.3-13.7-2.5-18.8c2.8-3 9-3.1 11.8-.3zm-705.9-5.6c-.8.9-1.1 5.8-.9 15.1.3 11.9.5 13.9 2.1 14.9 1.2.8 2.2.8 3.5 0 1.4-1 1.7-3 2-14.2.2-8.2-.1-13.9-.8-15.1-1.2-2.4-4.2-2.7-5.9-.7zm90.6-.8c-.4.4-.7 7.1-.7 14.9 0 15 .6 17.1 4.7 16.3 1.6-.3 1.8-1.7 1.8-15.8v-15.5l-2.5-.3c-1.4-.2-2.9 0-3.3.4zm53 0c-.4.4-.7 6.3-.7 13.1 0 11.7.1 12.5 2.4 14.8 4.4 4.4 14.6 5.2 19 1.6 1-.9 1.5-.8 2 .4.4 1.1 1.5 1.5 3.3 1.3l2.8-.3V315v-15.5l-2.7-.3c-3.8-.4-4.6 1.7-4.6 12.7-.1 8-.4 9.8-2.1 11.4-2.1 2.2-9.6 2.6-11.5.7-.6-.6-1.3-6.2-1.6-12.8-.5-11.6-.5-11.7-3-12-1.4-.2-2.9 0-3.3.4zm294.7.7c-.2.7-.3 7.8-.2 15.7.3 14.3.3 14.5 2.6 14.8 4.6.7 5.2-1 5.2-15.7 0-9.3-.4-14.1-1.2-14.9-1.6-1.6-5.7-1.5-6.4.1zm208.8.4c-1.3 2.5-1.4 16.9-.3 21.8.6 2.4 2.2 5 3.8 6.3 2.4 2 3.7 2.3 9 2 4.1-.3 6.8-1 8.1-2.1 1.9-1.7 2-1.7 2.5.3.7 2.6 4.3 2.6 5.7.1.5-1.1 1-7.5 1-14.3 0-13.7-.8-16.2-5.1-15.6-2.3.3-2.4.6-2.9 11.4-.3 6.9-1 11.7-1.8 12.6-2 2.5-7.9 3.2-10.8 1.3-2.3-1.5-2.4-2.1-2.4-11.6 0-5.5-.5-10.9-1-12-1.3-2.4-4.6-2.5-5.8-.2z" class="D E"/></g></svg>